<svg id="visual" viewBox="0 0 900 600" width="900" height="600" xmlns="http://www.w3.org/2000/svg" xmlns:xlink="http://www.w3.org/1999/xlink" version="1.1"><g transform="translate(457.6680122020236 294.04975867701154)"><path d="M122.4 -224.2C149.5 -196.4 155.9 -145.1 168.8 -103.8C181.6 -62.5 200.8 -31.3 217 9.4C233.3 50 246.5 100 226 128C205.5 156 151.3 162 108 185.8C64.7 209.7 32.3 251.3 -5.8 261.4C-44 271.5 -88 250.1 -121.1 220.3C-154.1 190.6 -176.2 152.5 -200.7 114.4C-225.2 76.3 -252.1 38.2 -251.8 0.2C-251.5 -37.8 -224.1 -75.7 -196.6 -108.7C-169.2 -141.8 -141.9 -170 -109.1 -194.6C-76.3 -219.2 -38.2 -240.1 4.7 -248.3C47.7 -256.6 95.3 -252.1 122.4 -224.2" fill="#FA7268"></path></g></svg>