<svg id="visual" viewBox="0 0 900 100" width="900" height="100" xmlns="http://www.w3.org/2000/svg" xmlns:xlink="http://www.w3.org/1999/xlink" version="1.1"><path d="M0 41L15 38C30 35 60 29 90 26.5C120 24 150 25 180 27.2C210 29.3 240 32.7 270 31.3C300 30 330 24 360 25.3C390 26.7 420 35.3 450 35.8C480 36.3 510 28.7 540 24.7C570 20.7 600 20.3 630 23.3C660 26.3 690 32.7 720 32C750 31.3 780 23.7 810 21C840 18.3 870 20.7 885 21.8L900 23L900 101L885 101C870 101 840 101 810 101C780 101 750 101 720 101C690 101 660 101 630 101C600 101 570 101 540 101C510 101 480 101 450 101C420 101 390 101 360 101C330 101 300 101 270 101C240 101 210 101 180 101C150 101 120 101 90 101C60 101 30 101 15 101L0 101Z" fill="#60a5fa"></path><path d="M0 36L15 35.3C30 34.7 60 33.3 90 32.7C120 32 150 32 180 31.8C210 31.7 240 31.3 270 30.8C300 30.3 330 29.7 360 30.5C390 31.3 420 33.7 450 36.5C480 39.3 510 42.7 540 45.5C570 48.3 600 50.7 630 50.3C660 50 690 47 720 46.7C750 46.3 780 48.7 810 47.3C840 46 870 41 885 38.5L900 36L900 101L885 101C870 101 840 101 810 101C780 101 750 101 720 101C690 101 660 101 630 101C600 101 570 101 540 101C510 101 480 101 450 101C420 101 390 101 360 101C330 101 300 101 270 101C240 101 210 101 180 101C150 101 120 101 90 101C60 101 30 101 15 101L0 101Z" fill="#5389d7"></path><path d="M0 42L15 41.8C30 41.7 60 41.3 90 44.3C120 47.3 150 53.7 180 53.7C210 53.7 240 47.3 270 44.5C300 41.7 330 42.3 360 46.2C390 50 420 57 450 59.5C480 62 510 60 540 59.5C570 59 600 60 630 58.7C660 57.3 690 53.7 720 50.7C750 47.7 780 45.3 810 45.3C840 45.3 870 47.7 885 48.8L900 50L900 101L885 101C870 101 840 101 810 101C780 101 750 101 720 101C690 101 660 101 630 101C600 101 570 101 540 101C510 101 480 101 450 101C420 101 390 101 360 101C330 101 300 101 270 101C240 101 210 101 180 101C150 101 120 101 90 101C60 101 30 101 15 101L0 101Z" fill="#456eb4"></path><path d="M0 56L15 55.8C30 55.7 60 55.3 90 56C120 56.7 150 58.3 180 60.5C210 62.7 240 65.3 270 65.8C300 66.3 330 64.7 360 65.7C390 66.7 420 70.3 450 71.5C480 72.7 510 71.3 540 69.7C570 68 600 66 630 64.3C660 62.7 690 61.3 720 60C750 58.7 780 57.3 810 59C840 60.7 870 65.3 885 67.7L900 70L900 101L885 101C870 101 840 101 810 101C780 101 750 101 720 101C690 101 660 101 630 101C600 101 570 101 540 101C510 101 480 101 450 101C420 101 390 101 360 101C330 101 300 101 270 101C240 101 210 101 180 101C150 101 120 101 90 101C60 101 30 101 15 101L0 101Z" fill="#375493"></path><path d="M0 68L15 70.3C30 72.7 60 77.3 90 78.3C120 79.3 150 76.7 180 75.3C210 74 240 74 270 73.8C300 73.7 330 73.3 360 73.7C390 74 420 75 450 74.5C480 74 510 72 540 71.8C570 71.7 600 73.3 630 74.2C660 75 690 75 720 74C750 73 780 71 810 70.2C840 69.3 870 69.7 885 69.8L900 70L900 101L885 101C870 101 840 101 810 101C780 101 750 101 720 101C690 101 660 101 630 101C600 101 570 101 540 101C510 101 480 101 450 101C420 101 390 101 360 101C330 101 300 101 270 101C240 101 210 101 180 101C150 101 120 101 90 101C60 101 30 101 15 101L0 101Z" fill="#273c73"></path><path d="M0 90L15 88.7C30 87.3 60 84.7 90 83.3C120 82 150 82 180 83.5C210 85 240 88 270 87.3C300 86.7 330 82.3 360 82.2C390 82 420 86 450 87.8C480 89.7 510 89.3 540 88.3C570 87.3 600 85.7 630 84C660 82.3 690 80.7 720 79.8C750 79 780 79 810 80.7C840 82.3 870 85.7 885 87.3L900 89L900 101L885 101C870 101 840 101 810 101C780 101 750 101 720 101C690 101 660 101 630 101C600 101 570 101 540 101C510 101 480 101 450 101C420 101 390 101 360 101C330 101 300 101 270 101C240 101 210 101 180 101C150 101 120 101 90 101C60 101 30 101 15 101L0 101Z" fill="#172554"></path></svg>