<svg id="visual" viewBox="0 0 900 200" width="900" height="200" xmlns="http://www.w3.org/2000/svg" xmlns:xlink="http://www.w3.org/1999/xlink" version="1.1"><path d="M0 133L12.5 132.8C25 132.7 50 132.3 75 130.7C100 129 125 126 150 126.5C175 127 200 131 225 132.7C250 134.3 275 133.7 300 130.2C325 126.7 350 120.3 375 118.2C400 116 425 118 450 120.5C475 123 500 126 525 127.2C550 128.3 575 127.7 600 125.5C625 123.3 650 119.7 675 120C700 120.3 725 124.7 750 127.3C775 130 800 131 825 129.2C850 127.3 875 122.7 887.5 120.3L900 118L900 201L887.5 201C875 201 850 201 825 201C800 201 775 201 750 201C725 201 700 201 675 201C650 201 625 201 600 201C575 201 550 201 525 201C500 201 475 201 450 201C425 201 400 201 375 201C350 201 325 201 300 201C275 201 250 201 225 201C200 201 175 201 150 201C125 201 100 201 75 201C50 201 25 201 12.5 201L0 201Z" fill="#fa7268"></path><path d="M0 146L12.5 146.5C25 147 50 148 75 144.8C100 141.7 125 134.3 150 132.2C175 130 200 133 225 137.2C250 141.3 275 146.7 300 148.3C325 150 350 148 375 145.2C400 142.3 425 138.7 450 136.3C475 134 500 133 525 133.7C550 134.3 575 136.7 600 139.7C625 142.7 650 146.3 675 146.7C700 147 725 144 750 142.3C775 140.7 800 140.3 825 138.7C850 137 875 134 887.5 132.5L900 131L900 201L887.5 201C875 201 850 201 825 201C800 201 775 201 750 201C725 201 700 201 675 201C650 201 625 201 600 201C575 201 550 201 525 201C500 201 475 201 450 201C425 201 400 201 375 201C350 201 325 201 300 201C275 201 250 201 225 201C200 201 175 201 150 201C125 201 100 201 75 201C50 201 25 201 12.5 201L0 201Z" fill="#f16367"></path><path d="M0 139L12.5 141.8C25 144.7 50 150.3 75 153.2C100 156 125 156 150 154.3C175 152.7 200 149.3 225 147.3C250 145.3 275 144.7 300 145.3C325 146 350 148 375 147.7C400 147.3 425 144.7 450 145.5C475 146.3 500 150.7 525 152.8C550 155 575 155 600 154.8C625 154.7 650 154.3 675 151.8C700 149.3 725 144.7 750 145.7C775 146.7 800 153.3 825 156.2C850 159 875 158 887.5 157.5L900 157L900 201L887.5 201C875 201 850 201 825 201C800 201 775 201 750 201C725 201 700 201 675 201C650 201 625 201 600 201C575 201 550 201 525 201C500 201 475 201 450 201C425 201 400 201 375 201C350 201 325 201 300 201C275 201 250 201 225 201C200 201 175 201 150 201C125 201 100 201 75 201C50 201 25 201 12.5 201L0 201Z" fill="#e85467"></path><path d="M0 163L12.5 161.8C25 160.7 50 158.3 75 159.7C100 161 125 166 150 166.8C175 167.7 200 164.3 225 162C250 159.7 275 158.3 300 158.3C325 158.3 350 159.7 375 160.3C400 161 425 161 450 161.8C475 162.7 500 164.3 525 165.7C550 167 575 168 600 168.5C625 169 650 169 675 166.5C700 164 725 159 750 158.5C775 158 800 162 825 162.2C850 162.3 875 158.7 887.5 156.8L900 155L900 201L887.5 201C875 201 850 201 825 201C800 201 775 201 750 201C725 201 700 201 675 201C650 201 625 201 600 201C575 201 550 201 525 201C500 201 475 201 450 201C425 201 400 201 375 201C350 201 325 201 300 201C275 201 250 201 225 201C200 201 175 201 150 201C125 201 100 201 75 201C50 201 25 201 12.5 201L0 201Z" fill="#de4467"></path><path d="M0 180L12.5 180.2C25 180.3 50 180.7 75 178.5C100 176.3 125 171.7 150 170.8C175 170 200 173 225 175.2C250 177.3 275 178.7 300 177.8C325 177 350 174 375 173.5C400 173 425 175 450 175.5C475 176 500 175 525 175C550 175 575 176 600 177C625 178 650 179 675 179C700 179 725 178 750 176C775 174 800 171 825 169.2C850 167.3 875 166.7 887.5 166.3L900 166L900 201L887.5 201C875 201 850 201 825 201C800 201 775 201 750 201C725 201 700 201 675 201C650 201 625 201 600 201C575 201 550 201 525 201C500 201 475 201 450 201C425 201 400 201 375 201C350 201 325 201 300 201C275 201 250 201 225 201C200 201 175 201 150 201C125 201 100 201 75 201C50 201 25 201 12.5 201L0 201Z" fill="#d23467"></path><path d="M0 181L12.5 182.7C25 184.3 50 187.7 75 188.2C100 188.7 125 186.3 150 185.7C175 185 200 186 225 186C250 186 275 185 300 183.8C325 182.7 350 181.3 375 182.5C400 183.7 425 187.3 450 187.8C475 188.3 500 185.7 525 185.2C550 184.7 575 186.3 600 185.8C625 185.3 650 182.7 675 183.3C700 184 725 188 750 189.3C775 190.7 800 189.3 825 189C850 188.7 875 189.3 887.5 189.7L900 190L900 201L887.5 201C875 201 850 201 825 201C800 201 775 201 750 201C725 201 700 201 675 201C650 201 625 201 600 201C575 201 550 201 525 201C500 201 475 201 450 201C425 201 400 201 375 201C350 201 325 201 300 201C275 201 250 201 225 201C200 201 175 201 150 201C125 201 100 201 75 201C50 201 25 201 12.5 201L0 201Z" fill="#c62368"></path></svg>