<svg id="visual" viewBox="0 0 960 540" width="960" height="540" xmlns="http://www.w3.org/2000/svg" xmlns:xlink="http://www.w3.org/1999/xlink" version="1.1"><path d="M0 438L17.8 434.8C35.7 431.7 71.3 425.3 106.8 424.3C142.3 423.3 177.7 427.7 213.2 425.2C248.7 422.7 284.3 413.3 320 413.2C355.7 413 391.3 422 426.8 428.7C462.3 435.3 497.7 439.7 533.2 443.5C568.7 447.3 604.3 450.7 640 444.7C675.7 438.7 711.3 423.3 746.8 415.7C782.3 408 817.7 408 853.2 410C888.7 412 924.3 416 942.2 418L960 420L960 541L942.2 541C924.3 541 888.7 541 853.2 541C817.7 541 782.3 541 746.8 541C711.3 541 675.7 541 640 541C604.3 541 568.7 541 533.2 541C497.7 541 462.3 541 426.8 541C391.3 541 355.7 541 320 541C284.3 541 248.7 541 213.2 541C177.7 541 142.3 541 106.8 541C71.3 541 35.7 541 17.8 541L0 541Z" fill="#fa7268"></path><path d="M0 434L17.8 435C35.7 436 71.3 438 106.8 438.2C142.3 438.3 177.7 436.7 213.2 435.2C248.7 433.7 284.3 432.3 320 436.7C355.7 441 391.3 451 426.8 452C462.3 453 497.7 445 533.2 439.8C568.7 434.7 604.3 432.3 640 437.3C675.7 442.3 711.3 454.7 746.8 454C782.3 453.3 817.7 439.7 853.2 438.2C888.7 436.7 924.3 447.3 942.2 452.7L960 458L960 541L942.2 541C924.3 541 888.7 541 853.2 541C817.7 541 782.3 541 746.8 541C711.3 541 675.7 541 640 541C604.3 541 568.7 541 533.2 541C497.7 541 462.3 541 426.8 541C391.3 541 355.7 541 320 541C284.3 541 248.7 541 213.2 541C177.7 541 142.3 541 106.8 541C71.3 541 35.7 541 17.8 541L0 541Z" fill="#f16367"></path><path d="M0 456L17.8 456.3C35.7 456.7 71.3 457.3 106.8 460.3C142.3 463.3 177.7 468.7 213.2 468.7C248.7 468.7 284.3 463.3 320 460C355.7 456.7 391.3 455.3 426.8 454C462.3 452.7 497.7 451.3 533.2 452.7C568.7 454 604.3 458 640 462.8C675.7 467.7 711.3 473.3 746.8 470.5C782.3 467.7 817.7 456.3 853.2 453C888.7 449.7 924.3 454.3 942.2 456.7L960 459L960 541L942.2 541C924.3 541 888.7 541 853.2 541C817.7 541 782.3 541 746.8 541C711.3 541 675.7 541 640 541C604.3 541 568.7 541 533.2 541C497.7 541 462.3 541 426.8 541C391.3 541 355.7 541 320 541C284.3 541 248.7 541 213.2 541C177.7 541 142.3 541 106.8 541C71.3 541 35.7 541 17.8 541L0 541Z" fill="#e85467"></path><path d="M0 478L17.8 477C35.7 476 71.3 474 106.8 473.3C142.3 472.7 177.7 473.3 213.2 473.5C248.7 473.7 284.3 473.3 320 474.7C355.7 476 391.3 479 426.8 482.3C462.3 485.7 497.7 489.3 533.2 490.5C568.7 491.7 604.3 490.3 640 490.8C675.7 491.3 711.3 493.7 746.8 491.2C782.3 488.7 817.7 481.3 853.2 477.3C888.7 473.3 924.3 472.7 942.2 472.3L960 472L960 541L942.2 541C924.3 541 888.7 541 853.2 541C817.7 541 782.3 541 746.8 541C711.3 541 675.7 541 640 541C604.3 541 568.7 541 533.2 541C497.7 541 462.3 541 426.8 541C391.3 541 355.7 541 320 541C284.3 541 248.7 541 213.2 541C177.7 541 142.3 541 106.8 541C71.3 541 35.7 541 17.8 541L0 541Z" fill="#de4467"></path><path d="M0 508L17.8 507.2C35.7 506.3 71.3 504.7 106.8 501.7C142.3 498.7 177.7 494.3 213.2 495.5C248.7 496.7 284.3 503.3 320 507.2C355.7 511 391.3 512 426.8 510.7C462.3 509.3 497.7 505.7 533.2 505.2C568.7 504.7 604.3 507.3 640 504.7C675.7 502 711.3 494 746.8 493C782.3 492 817.7 498 853.2 502.5C888.7 507 924.3 510 942.2 511.5L960 513L960 541L942.2 541C924.3 541 888.7 541 853.2 541C817.7 541 782.3 541 746.8 541C711.3 541 675.7 541 640 541C604.3 541 568.7 541 533.2 541C497.7 541 462.3 541 426.8 541C391.3 541 355.7 541 320 541C284.3 541 248.7 541 213.2 541C177.7 541 142.3 541 106.8 541C71.3 541 35.7 541 17.8 541L0 541Z" fill="#d23467"></path><path d="M0 514L17.8 514.8C35.7 515.7 71.3 517.3 106.8 516.3C142.3 515.3 177.7 511.7 213.2 511.3C248.7 511 284.3 514 320 514.3C355.7 514.7 391.3 512.3 426.8 510.3C462.3 508.3 497.7 506.7 533.2 509C568.7 511.3 604.3 517.7 640 519.7C675.7 521.7 711.3 519.3 746.8 519C782.3 518.7 817.7 520.3 853.2 520C888.7 519.7 924.3 517.3 942.2 516.2L960 515L960 541L942.2 541C924.3 541 888.7 541 853.2 541C817.7 541 782.3 541 746.8 541C711.3 541 675.7 541 640 541C604.3 541 568.7 541 533.2 541C497.7 541 462.3 541 426.8 541C391.3 541 355.7 541 320 541C284.3 541 248.7 541 213.2 541C177.7 541 142.3 541 106.8 541C71.3 541 35.7 541 17.8 541L0 541Z" fill="#c62368"></path></svg>