<svg id="visual" viewBox="0 0 900 600" width="900" height="600" xmlns="http://www.w3.org/2000/svg" xmlns:xlink="http://www.w3.org/1999/xlink" version="1.1"><path d="M0 504L8.3 491.3C16.7 478.7 33.3 453.3 50 441.8C66.7 430.3 83.3 432.7 100 453.7C116.7 474.7 133.3 514.3 150 520C166.7 525.7 183.3 497.3 200 478.5C216.7 459.7 233.3 450.3 250 466.3C266.7 482.3 283.3 523.7 300 544.5C316.7 565.3 333.3 565.7 350 550C366.7 534.3 383.3 502.7 400 500.7C416.7 498.7 433.3 526.3 450 519.3C466.7 512.3 483.3 470.7 500 459.5C516.7 448.3 533.3 467.7 550 471.7C566.7 475.7 583.3 464.3 600 468.8C616.7 473.3 633.3 493.7 650 493.7C666.7 493.7 683.3 473.3 700 483.7C716.7 494 733.3 535 750 546.7C766.7 558.3 783.3 540.7 800 527.7C816.7 514.7 833.3 506.3 850 510.3C866.7 514.3 883.3 530.7 891.7 538.8L900 547L900 601L891.7 601C883.3 601 866.7 601 850 601C833.3 601 816.7 601 800 601C783.3 601 766.7 601 750 601C733.3 601 716.7 601 700 601C683.3 601 666.7 601 650 601C633.3 601 616.7 601 600 601C583.3 601 566.7 601 550 601C533.3 601 516.7 601 500 601C483.3 601 466.7 601 450 601C433.3 601 416.7 601 400 601C383.3 601 366.7 601 350 601C333.3 601 316.7 601 300 601C283.3 601 266.7 601 250 601C233.3 601 216.7 601 200 601C183.3 601 166.7 601 150 601C133.3 601 116.7 601 100 601C83.3 601 66.7 601 50 601C33.3 601 16.7 601 8.3 601L0 601Z" fill="#0066FF" stroke-linecap="round" stroke-linejoin="miter"></path></svg>